# AST/ASF file generated using VICON BodyLanguage
# -----------------------------------------------
:version 1.10
:name VICON
:units
  mass 1.0
  length 0.45
  angle deg
:documentation
   .ast/.asf automatically generated from VICON data using
   VICON BodyBuilder and BodyLanguage model FoxedUp or BRILLIANT.MOD
:root
   order TX TY TZ RX RY RZ
   axis XYZ
   position 0 0 0  
   orientation 0 0 0 
:bonedata
  begin
     id 1 
     name lhipjoint
     direction 0.623529 -0.717805 0.309788 
     length 2.23224 
     axis 0 0 0  XYZ
  end
  begin
     id 2 
     name lfemur
     direction 0.34202 -0.939693 0  
     length 7.11402  
     axis 0 0 20  XYZ
    dof rx ry rz
    limits (-160.0 20.0)
           (-70.0 70.0)
           (-60.0 70.0)
  end
  begin
     id 3 
     name ltibia
     direction 0.34202 -0.939693 0   
     length 6.78496   
     axis 0 0 20   XYZ
    dof rx
    limits (-10.0 170.0)
  end
  begin
     id 4 
     name lfoot
     direction 0.125078 -0.343648 0.930732   
     length 1.84054   
     axis -90 7.62852e-016 20   XYZ
    dof rx rz
    limits (-45.0 90.0)
           (-70.0 20.0)
  end
  begin
     id 5 
     name ltoes
     direction 1.53565e-011 -4.21893e-011 1   
     length 0.916474   
     axis -90 7.62852e-016 20   XYZ
    dof rx
    limits (-90.0 20.0)
  end
  begin
     id 6 
     name rhipjoint
     direction -0.564688 -0.757748 0.327026   
     length 2.11457  
     axis 0 0 0  XYZ 
  end
  begin
     id 7 
     name rfemur
     direction -0.34202 -0.939693 0   
     length 7.14609   
     axis 0 0 -20   XYZ
    dof rx ry rz
    limits (-160.0 20.0)
           (-70.0 70.0)
           (-70.0 60.0)
  end
  begin
     id 8 
     name rtibia
     direction -0.34202 -0.939693 0   
     length 6.78101   
     axis 0 0 -20   XYZ
    dof rx
    limits (-10.0 170.0)
 end
 begin
     id 9 
     name rfoot
     direction -0.0992671 -0.272734 0.956955   
     length 1.96168  
     axis -90 -7.62852e-016 -20   XYZ
    dof rx rz
    limits (-45.0 90.0)
           (-20.0 70.0)
  end
  begin
     id 10 
     name rtoes
     direction -1.5356e-011 -4.21891e-011 1   
     length 0.982933   
     axis -90 -7.62852e-016 -20   XYZ
    dof rx
    limits (-90.0 20.0)
  end
  begin
     id 11 
     name lowerback
     direction -0.00596953 0.998668 0.0512524   
     length 1.87557   
     axis 0 0 0   XYZ
    dof rx ry rz
    limits (-20.0 45.0)
           (-30.0 30.0)
           (-30.0 30.0)
  end
  begin
     id 12 
     name upperback
     direction 0.00584879 0.999652 0.0257308   
     length 1.87883   
     axis 0 0 0   XYZ
    dof rx ry rz
    limits (-20.0 45.0)
           (-30.0 30.0)
           (-30.0 30.0)
  end
  begin
     id 13 
     name thorax
     direction 0.010104 0.999947 0.00178881   
     length 1.87779   
     axis 0 0 0   XYZ
    dof rx ry rz
    limits (-20.0 45.0)
           (-30.0 30.0)
           (-30.0 30.0)
  end
  begin
     id 14 
     name lowerneck
     direction 0.0120771 0.995934 -0.0892773   
     length 1.40897   
     axis 0 0 0   XYZ
    dof rx ry rz
    limits (-20.0 45.0)
           (-30.0 30.0)
           (-30.0 30.0)
  end
  begin
     id 15 
     name upperneck
     direction -0.030568 0.999465 -0.0116366   
     length 1.38661   
     axis 0 0 0   XYZ
    dof rx ry rz
    limits (-20.0 45.0)
           (-30.0 30.0)
           (-30.0 30.0)
  end
  begin
     id 16
     name head
     direction -0.0170715 0.999854 -0.00104426  
     length 1.47052  
     axis 0 0 0   XYZ
    dof rx ry rz
    limits (-20.0 45.0)
           (-30.0 30.0)
           (-30.0 30.0)
  end
  begin
     id 17 
     name lclavicle
     direction 0.977763 0.206143 0.038532  
     length 3.02424  
     axis 0 0 0   XYZ
    dof ry rz
    limits (-20.0 10.0)
           (0.0 20.0)
  end
  begin
     id 18 
     name lhumerus
     direction 1 -4.48965e-011 -2.62654e-027   
     length 4.68382   
     axis 180 -30 -90   XYZ
    dof rx ry rz
    limits (-60.0 90.0)
           (-90.0 90.0)
           (-90.0 90.0)
  end
  begin
     id 19
     name lradius
     direction 1 -4.48973e-011 -1.54954e-027   
     length 2.98124   
     axis 180 -30 -90   XYZ
    dof rx
    limits (-10.0 170.0)
  end
  begin
     id 20
     name lwrist
     direction 1 -4.48959e-011 7.20928e-028   
     length 1.49062   
     axis -5.52449e-016 90 90   XYZ
    dof ry
    limits (-180.0 0.0)
 end
  begin
     id 21 
     name lhand
     direction 1 -4.48971e-011 1.44186e-027   
     length 0.707595   
     axis -9.20027e-016 90 90   XYZ
    dof rx rz
    limits (-90.0 90.0)
           (-45.0 45.0)
  end
  begin
     id 22 
     name lfingers
     direction 1 -4.48985e-011 2.88371e-027   
     length 0.570481   
     axis -1.84005e-015 90 90   XYZ
    dof rx
    limits (0.0 90.0)
  end
  begin
     id 23
     name lthumb
     direction 0.707107 -6.34929e-011 0.707107   
     length 0.819101   
     axis -90 45 2.85299e-015   XYZ
    dof rx rz
    limits (-45.0 45.0)
           (-45.0 45.0)
  end
  begin
     id 24 
     name rclavicle
     direction -0.958661 0.284411 -0.00895327   
     length 3.11921  
     axis 0 0 0   XYZ 
    dof ry rz
    limits (-10.0 20.0)
           (-20.0 0.0)
  end
  begin
     id 25 
     name rhumerus
     direction -1 -4.48963e-011 -4.22193e-027  
     length 4.75876   
     axis 180 30 90   XYZ
    dof rx ry rz
    limits (-90.0 60.0)
           (-90.0 90.0)
           (-90.0 90.0)
  end
  begin
     id 26 
     name rradius
     direction -1 -4.48968e-011 -1.07616e-027   
     length 2.93293   
     axis 180 30 90   XYZ
    dof rx
    limits (-10.0 170.0)
  end
  begin
     id 27 
     name rwrist
     direction -1 -4.48965e-011 7.20928e-028   
     length 1.46647   
     axis -5.52449e-016 -90 -90   XYZ
    dof ry
    limits (-180.0 0.0)
  end
  begin
     id 28
     name rhand
     direction -1 -4.48971e-011 1.44186e-027   
     length 0.831748   
     axis -9.20027e-016 -90 -90   XYZ
    dof rx rz
    limits (-90.0 90.0)
           (-45.0 45.0)
  end
  begin
     id 29
     name rfingers
     direction -1 -4.48961e-011 2.88371e-027   
     length 0.670577   
     axis -1.84005e-015 -90 -90   XYZ
    dof rx
    limits (0.0 90.0)
  end
  begin
     id 30
     name rthumb
     direction -0.707107 -6.34929e-011 0.707107   
     length 0.962818   
     axis -90 -45 -2.85299e-015   XYZ
    dof rx rz
    limits (-45.0 45.0)
           (-45.0 45.0)
  end
:hierarchy
  begin
    root lhipjoint rhipjoint lowerback
    lhipjoint lfemur
    lfemur ltibia
    ltibia lfoot
    lfoot ltoes
    rhipjoint rfemur
    rfemur rtibia
    rtibia rfoot
    rfoot rtoes
    lowerback upperback
    upperback thorax
    thorax lowerneck lclavicle rclavicle
    lowerneck upperneck
    upperneck head
    lclavicle lhumerus
    lhumerus lradius
    lradius lwrist
    lwrist lhand lthumb
    lhand lfingers
    rclavicle rhumerus
    rhumerus rradius
    rradius rwrist
    rwrist rhand rthumb
    rhand rfingers
  end

#!OML:ASF E:\id_vita\Project 1\Capture day 1\Session 1\Female.ASF
:FULLY-SPECIFIED
:DEGREES
66
root -7.71443 27.1409 -0.742038 17.8653 86.1472 4.58822
lowerback -13.9322 1.14122 -4.68976
upperback -3.77451 2.33617 -0.153148
thorax 3.63958 1.2093 2.87971
lowerneck 2.28975 -1.08111 -4.12102
upperneck 9.15325 -1.77457 7.4382
head 2.67401 -0.74177 3.15603
rclavicle 1.36991e-014 -1.07344e-014
rhumerus -32.2994 -17.2415 -81.7217
rradius 22.1374
rwrist 19.3988
rhand -13.1782 9.47963
rfingers 7.12502
rthumb 12.9214 -20.1003
lclavicle 1.36991e-014 -1.07344e-014
lhumerus -76.1373 55.9531 19.656
lradius 10.9137
lwrist -88.6618
lhand -4.66513 23.4175
lfingers 7.12502
lthumb 21.1151 52.2878
rfemur -27.1961 6.38923 16.732
rtibia 39.0985
rfoot -6.77779 -18.4754
rtoes -3.23756
lfemur -21.0745 -8.55352 -24.0352
ltibia 28.1263
lfoot -19.1498 13.1188
ltoes 9.66907
67
root -7.70674 27.1432 -0.756425 16.6595 86.0858 3.29268
lowerback -14.0107 1.12873 -4.59753
upperback -3.73609 2.31035 -0.146614
thorax 3.72833 1.19323 2.83424
lowerneck 2.1939 -1.08109 -4.06945
upperneck 9.34841 -1.77396 7.36952
head 2.7554 -0.736131 3.12557
rclavicle 2.3219e-014 2.98177e-015
rhumerus -32.2266 -16.8646 -81.8809
rradius 22.3167
rwrist 19.1137
rhand -13.3526 9.70055
rfingers 7.12502
rthumb 12.7533 -19.89
lclavicle 2.3219e-014 2.98177e-015
lhumerus -75.3865 56.2028 20.4196
lradius 10.9138
lwrist -88.6284
lhand -4.75079 23.1828
lfingers 7.12502
lthumb 21.0328 52.0622
rfemur -27.7887 6.1912 16.9044
rtibia 39.908
rfoot -6.69374 -18.5625
rtoes -0.527712
lfemur -21.1008 -8.56271 -23.9917
ltibia 28.0537
lfoot -19.0837 13.1614
ltoes 9.38549
68
root -7.6932 27.1426 -0.768749 16.4381 86.1183 3.04263
lowerback -14.0704 1.08569 -4.65568
upperback -3.67266 2.26161 -0.092014
thorax 3.82668 1.16401 2.92002
lowerneck 2.01104 -1.15124 -4.02496
upperneck 9.57254 -1.8623 7.21359
head 2.86721 -0.776247 3.06521
rclavicle -1.98792e-014 -1.19271e-015
rhumerus -32.1131 -16.7289 -81.8524
rradius 22.3564
rwrist 18.9826
rhand -13.6008 9.95643
rfingers 7.12502
rthumb 12.514 -19.6489
lclavicle -1.98792e-014 -1.19271e-015
lhumerus -73.8564 56.2468 22.2104
lradius 10.908
lwrist -88.0166
lhand -4.87517 23.0773
lfingers 7.12502
lthumb 20.9133 51.9699
rfemur -28.2505 5.8111 17.0755
rtibia 40.6568
rfoot -6.54035 -18.85
rtoes 1.01801
lfemur -21.0284 -8.6325 -24.0106
ltibia 27.9565
lfoot -18.992 13.191
ltoes 9.10245
69
root -7.67661 27.1447 -0.780074 16.4749 86.1197 3.18307
lowerback -13.7783 1.1102 -4.67728
upperback -3.74216 2.28157 -0.126406
thorax 3.59386 1.18166 2.88704
lowerneck 1.90977 -1.23009 -3.99928
upperneck 9.87518 -1.97418 7.22671
head 2.99671 -0.82197 3.06806
rclavicle -1.48747e-014 1.11319e-014
rhumerus -32.3406 -16.6683 -81.8048
rradius 22.5174
rwrist 18.7241
rhand -13.5162 9.92696
rfingers 7.12502
rthumb 12.5956 -19.6733
lclavicle -1.48747e-014 1.11319e-014
lhumerus -70.9965 55.6104 25.5603
lradius 10.9528
lwrist -86.2906
lhand -4.96362 23.2997
lfingers 7.12502
lthumb 20.8284 52.2017
rfemur -28.5957 5.48616 17.2548
rtibia 41.3361
rfoot -6.23482 -19.3784
rtoes 0.0309204
lfemur -20.7937 -8.65094 -24.0834
ltibia 27.8544
lfoot -19.0113 13.1594
ltoes 9.3395
70
root -7.66141 27.1474 -0.790904 16.0646 86.1169 2.91257
lowerback -13.4677 1.14395 -4.71165
upperback -3.76653 2.31264 -0.148883
thorax 3.39643 1.20203 2.87567
lowerneck 1.88251 -1.23892 -3.93748
upperneck 10.0759 -1.99179 7.26464
head 3.07152 -0.821513 3.07277
rclavicle -3.3312e-015 1.59028e-015
rhumerus -32.4891 -16.6451 -81.7563
rradius 22.682
rwrist 18.3825
rhand -13.3534 9.66454
rfingers 7.12502
rthumb 12.7526 -19.926
lclavicle -3.3312e-015 1.59028e-015
lhumerus -68.6156 55.106 28.3173
lradius 11.022
lwrist -84.8517
lhand -5.11745 23.1388
lfingers 7.12502
lthumb 20.6806 52.0569
rfemur -28.9049 5.30442 17.4482
rtibia 41.9543
rfoot -6.03843 -19.9214
rtoes -0.296786
lfemur -20.5347 -8.61079 -24.1405
ltibia 27.7807
lfoot -19.0573 13.1148
ltoes 9.37563
71
root -7.64682 27.1487 -0.803716 14.5827 86.0869 1.43418
lowerback -13.2701 1.14596 -4.61906
upperback -3.85116 2.29145 -0.144611
thorax 3.2056 1.19913 2.8156
lowerneck 2.12607 -1.1864 -3.71829
upperneck 10.0026 -1.91054 7.12515
head 2.98853 -0.781241 2.98245
rclavicle 3.9611e-014 8.74653e-015
rhumerus -32.6043 -16.7445 -81.6882
rradius 22.7296
rwrist 18.2306
rhand -13.4161 9.63749
rfingers 7.12502
rthumb 12.6921 -19.9568
lclavicle 3.9611e-014 8.74653e-015
lhumerus -66.2385 54.4749 31.1129
lradius 11.1137
lwrist -83.0551
lhand -5.15223 22.8818
lfingers 7.12502
lthumb 20.6471 51.8036
rfemur -29.358 5.10599 17.6935
rtibia 42.5063
rfoot -5.96308 -20.2117
rtoes 0.464627
lfemur -20.4487 -8.65091 -24.0871
ltibia 27.7278
lfoot -19.0455 13.1846
ltoes 9.40846
72
root -7.63204 27.1454 -0.818361 12.983 86.0023 -0.195414
lowerback -13.3655 1.10703 -4.42711
upperback -3.79015 2.21832 -0.136269
thorax 3.33484 1.15775 2.70997
lowerneck 2.29734 -1.12758 -3.53815
upperneck 9.87978 -1.81516 6.90886
head 2.90096 -0.738949 2.87273
rclavicle -2.9945e-014 -1.45113e-014
rhumerus -32.5182 -16.5111 -81.8156
rradius 22.8327
rwrist 18.0631
rhand -13.558 9.93573
rfingers 7.12502
rthumb 12.5553 -19.667
lclavicle -2.9945e-014 -1.45113e-014
lhumerus -63.2092 53.7209 34.7121
lradius 11.2483
lwrist -80.5357
lhand -5.12584 23.0114
lfingers 7.12502
lthumb 20.6725 51.9305
rfemur -29.8692 4.8805 17.9298
rtibia 42.9985
rfoot -5.92469 -20.2154
rtoes 0.706483
lfemur -20.4059 -8.65596 -24.0342
ltibia 27.6976
lfoot -19.0865 13.2724
ltoes 9.69213
73
root -7.61893 27.1439 -0.83116 12.3696 85.9894 -0.697684
lowerback -13.129 1.04153 -4.38086
upperback -3.79276 2.10937 -0.096942
thorax 3.21216 1.10602 2.70029
lowerneck 2.26808 -1.1013 -3.56391
upperneck 10.1363 -1.77443 6.75874
head 2.98896 -0.71845 2.83047
rclavicle 3.88251e-015 -4.37326e-015
rhumerus -32.6448 -16.1174 -81.8284
rradius 23.0168
rwrist 17.8677
rhand -13.5372 10.2149
rfingers 7.12502
rthumb 12.5753 -19.3866
lclavicle 3.88251e-015 -4.37326e-015
lhumerus -59.9801 52.4597 38.7842
lradius 11.4401
lwrist -77.6188
lhand -5.18402 23.0658
lfingers 7.12502
lthumb 20.6166 51.991
rfemur -30.2131 4.66054 18.097
rtibia 43.4185
rfoot -6.05917 -20.1773
rtoes 0.56549
lfemur -20.2287 -8.56924 -24.0853
ltibia 27.7017
lfoot -19.1997 13.1957
ltoes 10.0149
74
root -7.60918 27.1437 -0.843433 12.7621 85.9505 -0.200645
lowerback -13.001 1.01558 -4.34449
upperback -3.67553 2.06197 -0.132839
thorax 3.2718 1.07629 2.63325
lowerneck 2.09597 -1.06732 -3.62281
upperneck 10.2686 -1.73187 6.76731
head 3.06479 -0.695003 2.84791
rclavicle 8.5159e-015 3.57812e-015
rhumerus -32.423 -16.4411 -81.7344
rradius 22.9504
rwrist 18.1364
rhand -13.4344 10.2191
rfingers 7.12502
rthumb 12.6745 -19.3763
lclavicle 8.5159e-015 3.57812e-015
lhumerus -56.9429 51.3107 42.4818
lradius 11.6258
lwrist -75.0646
lhand -5.25076 22.742
lfingers 7.12502
lthumb 20.5525 51.6741
rfemur -30.5753 4.51066 18.1683
rtibia 43.753
rfoot -6.28452 -20.0724
rtoes 0.13008
lfemur -20.0739 -8.46102 -24.2147
ltibia 27.7064
lfoot -19.2629 13.1199
ltoes 10.1162
75
root -7.59786 27.1404 -0.85486 12.5154 85.7876 -0.476588
lowerback -12.9206 1.02879 -4.31291
upperback -3.65675 2.07025 -0.139487
thorax 3.24857 1.07994 2.60746
lowerneck 1.89349 -1.06291 -3.59948
upperneck 10.4602 -1.72201 6.66773
head 3.16532 -0.686548 2.81306
rclavicle -2.12273e-014 -5.96354e-016
rhumerus -32.3089 -16.7856 -81.6137
rradius 22.9338
rwrist 18.4045
rhand -13.3751 10.1054
rfingers 7.12502
rthumb 12.7316 -19.4864
lclavicle -2.12273e-014 -5.96354e-016
lhumerus -54.2762 50.0394 45.8076
lradius 11.8028
lwrist -72.6311
lhand -5.16624 22.6093
lfingers 7.12502
lthumb 20.6337 51.5326
rfemur -31.0611 4.47283 18.2647
rtibia 43.9831
rfoot -6.41745 -19.8233
rtoes -0.200841
lfemur -20.0382 -8.36445 -24.2732
ltibia 27.6684
lfoot -19.2994 13.1765
ltoes 10.1099
76
root -7.58034 27.1398 -0.865078 11.394 85.6855 -1.61405
lowerback -13.6897 0.952504 -4.66269
upperback -3.09159 2.03705 0.193063
thorax 4.23845 1.01761 3.18586
lowerneck 1.56905 -1.11663 -3.66389
upperneck 10.2362 -1.76465 6.29175
head 3.14448 -0.726937 2.69119
rclavicle 3.98812e-015 1.80894e-014
rhumerus -31.5077 -16.5369 -81.4236
rradius 23.0321
rwrist 18.3079
rhand -13.3264 10.0295
rfingers 7.12502
rthumb 12.7785 -19.5594
lclavicle 3.98812e-015 1.80894e-014
lhumerus -51.7331 49.8779 49.033
lradius 11.9449
lwrist -70.8912
lhand -5.11205 22.8353
lfingers 7.12502
lthumb 20.6857 51.7529
rfemur -31.4897 4.39751 18.4571
rtibia 44.1005
rfoot -6.43463 -19.5808
rtoes -0.0206328
lfemur -19.9399 -8.34612 -24.242
ltibia 27.5974
lfoot -19.353 13.2512
ltoes 10.0424
77
root -7.56045 27.1406 -0.876749 11.1403 85.7457 -1.69539
lowerback -12.9586 0.899111 -5.14951
upperback -3.41355 1.97684 0.508622
thorax 3.47603 1.0161 3.75138
lowerneck 1.92117 -1.22161 -3.70769
upperneck 10.4725 -1.88516 5.97984
head 3.16193 -0.796446 2.59213
rclavicle -3.08621e-015 9.34288e-015
rhumerus -32.3414 -15.7218 -80.9011
rradius 23.4057
rwrist 17.6547
rhand -13.3531 9.83701
rfingers 7.12502
rthumb 12.7528 -19.7535
lclavicle -3.08621e-015 9.34288e-015
lhumerus -50.5309 48.3452 51.5001
lradius 12.2577
lwrist -68.7205
lhand -5.26083 22.6772
lfingers 7.12502
lthumb 20.5428 51.6103
rfemur -31.691 4.16447 18.608
rtibia 44.1226
rfoot -6.43292 -19.3171
rtoes 0.083566
lfemur -19.6191 -8.43515 -24.3044
ltibia 27.5471
lfoot -19.4085 13.2815
ltoes 10.0051
78
root -7.54072 27.1405 -0.888079 11.2567 85.8555 -1.40099
lowerback -13.0937 0.87653 -4.70366
upperback -3.09913 1.90594 0.194467
thorax 3.91466 0.959712 3.16941
lowerneck 2.00985 -1.13367 -3.55305
upperneck 10.1084 -1.78623 6.27617
head 3.01774 -0.739882 2.66166
rclavicle 4.13565e-015 -2.80286e-014
rhumerus -31.9482 -15.7767 -81.4478
rradius 23.4501
rwrist 17.3793
rhand -13.3266 9.54312
rfingers 7.12502
rthumb 12.7783 -20.0458
lclavicle 4.13565e-015 -2.80286e-014
lhumerus -48.7403 47.9839 52.8847
lradius 12.3592
lwrist -67.7601
lhand -5.38559 22.2689
lfingers 7.12502
lthumb 20.4229 51.2149
rfemur -31.8612 3.93415 18.725
rtibia 44.0603
rfoot -6.40106 -18.9758
rtoes -0.512178
lfemur -19.312 -8.58041 -24.3844
ltibia 27.5295
lfoot -19.4743 13.3048
ltoes 10.1593
79
root -7.52258 27.1372 -0.896864 10.2784 85.8885 -2.3624
lowerback -13.0241 0.818583 -4.67274
upperback -3.05229 1.817 0.256474
thorax 3.93246 0.913365 3.20192
lowerneck 1.93973 -1.02212 -3.70014
upperneck 10.1923 -1.64555 6.39691
head 3.05618 -0.669586 2.73492
rclavicle -1.97791e-014 -1.39149e-015
rhumerus -31.8685 -15.728 -81.3468
rradius 23.5125
rwrist 17.2539
rhand -12.9912 9.28747
rfingers 7.12502
rthumb 13.1017 -20.281
lclavicle -1.97791e-014 -1.39149e-015
lhumerus -47.4137 47.3971 54.5401
lradius 12.5324
lwrist -66.6474
lhand -5.40958 22.4777
lfingers 7.12502
lthumb 20.3998 51.4262
rfemur -32.2195 3.89813 18.8944
rtibia 43.9367
rfoot -6.39374 -18.6314
rtoes -1.64241
lfemur -19.2228 -8.6318 -24.3471
ltibia 27.5219
lfoot -19.5366 13.3075
ltoes 10.3825
